<svg xmlns="http://www.w3.org/2000/svg" viewBox="0 0 1180 520" role="img">
  <defs>
    <linearGradient id="g" x1="0" x2="1" y1="0" y2="1"><stop stop-color="#eff7ff"/><stop offset="1" stop-color="#fff6ed"/></linearGradient>
    <linearGradient id="b" x1="0" x2="1"><stop stop-color="#2563eb"/><stop offset="1" stop-color="#0f766e"/></linearGradient>
    <filter id="s" x="-10%" y="-10%" width="120%" height="120%"><feDropShadow dx="0" dy="10" stdDeviation="14" flood-opacity="0.12"/></filter>
  </defs>
  <rect width="1180" height="520" rx="34" fill="url(#g)"/>
  <text x="58" y="72" font-family="Inter,Arial" font-weight="800" font-size="30" fill="#0f172a">TORL-VLA Pipeline</text>
  <g filter="url(#s)">
    <rect x="60" y="120" width="300" height="300" rx="26" fill="white"/>
    <rect x="440" y="120" width="300" height="300" rx="26" fill="white"/>
    <rect x="820" y="120" width="300" height="300" rx="26" fill="white"/>
  </g>
  <g font-family="Inter,Arial" fill="#0f172a">
    <text x="90" y="166" font-weight="800" font-size="22">Stage I</text>
    <text x="90" y="198" font-weight="700" font-size="18">Wrench-aware VLA</text>
    <text x="90" y="236" font-size="15" fill="#475569">Vision + language + proprioception</text>
    <text x="90" y="262" font-size="15" fill="#475569">Dual-fingertip wrench token</text>
    <text x="90" y="288" font-size="15" fill="#475569">MoE routing + gated bypass</text>
    <text x="90" y="324" font-size="15" fill="#475569">Output: action reference</text>
    <text x="90" y="350" font-size="15" fill="#475569">and future wrench sequence</text>

    <text x="470" y="166" font-weight="800" font-size="22">Stage II</text>
    <text x="470" y="198" font-weight="700" font-size="18">Online adaptation</text>
    <text x="470" y="236" font-size="15" fill="#475569">Stage estimator routes contact windows</text>
    <text x="470" y="262" font-size="15" fill="#475569">Actor refines K-step chunks</text>
    <text x="470" y="288" font-size="15" fill="#475569">Task critic improves return</text>
    <text x="470" y="314" font-size="15" fill="#475569">IC critic censors rescued success</text>

    <text x="850" y="166" font-weight="800" font-size="22">Stage III</text>
    <text x="850" y="198" font-weight="700" font-size="18">Real-robot evaluation</text>
    <text x="850" y="236" font-size="15" fill="#475569">Coffee cup placement</text>
    <text x="850" y="262" font-size="15" fill="#475569">Latch grip / flip / lock</text>
    <text x="850" y="288" font-size="15" fill="#475569">Fragile egg handling</text>
    <text x="850" y="324" font-size="15" fill="#475569">Success, throughput, latency</text>
  </g>
  <g fill="none" stroke="url(#b)" stroke-width="8" stroke-linecap="round">
    <path d="M370 270 C390 270 410 270 430 270"/>
    <path d="M750 270 C770 270 790 270 810 270"/>
  </g>
  <g fill="#2563eb"><path d="M430 270 l-20 -12 v24z"/><path d="M810 270 l-20 -12 v24z"/></g>
  <g transform="translate(120,365)">
    <rect width="170" height="32" rx="16" fill="#e0f2fe"/><text x="18" y="22" font-family="Inter,Arial" font-size="14" fill="#0369a1">future contact cue</text>
  </g>
  <g transform="translate(500,365)">
    <rect width="180" height="32" rx="16" fill="#dcfce7"/><text x="18" y="22" font-family="Inter,Arial" font-size="14" fill="#166534">refined action chunk</text>
  </g>
  <g transform="translate(905,365)">
    <rect width="140" height="32" rx="16" fill="#ffedd5"/><text x="18" y="22" font-family="Inter,Arial" font-size="14" fill="#9a3412">28/30 full task</text>
  </g>
</svg>
